<?xml version="1.0" standalone="no"?>
<!DOCTYPE svg PUBLIC "-//W3C//DTD SVG 20010904//EN"
 "http://www.w3.org/TR/2001/REC-SVG-20010904/DTD/svg10.dtd">
<svg version="1.0" xmlns="http://www.w3.org/2000/svg"
 width="2250.000000pt" height="2250.000000pt" viewBox="0 0 2250.000000 2250.000000"
 preserveAspectRatio="xMidYMid meet">
<metadata>
Created by potrace 1.14, written by Peter Selinger 2001-2017
</metadata>
<g transform="translate(0.000000,2250.000000) scale(0.100000,-0.100000)"
fill="#000000" stroke="none">
<path d="M18887 22267 c-10 -12 -70 -85 -135 -161 -64 -77 -170 -203 -236
-280 -65 -78 -137 -163 -160 -190 -22 -28 -50 -60 -61 -72 -11 -12 -27 -31
-35 -41 -25 -31 -165 -198 -170 -203 -3 -3 -19 -21 -35 -41 -17 -19 -49 -58
-72 -85 -22 -27 -215 -256 -428 -509 -213 -253 -407 -482 -430 -510 -52 -61
-265 -314 -320 -380 -22 -27 -44 -53 -50 -59 -5 -6 -32 -38 -60 -71 -65 -78
-80 -95 -105 -125 -35 -41 -82 -97 -400 -475 -167 -198 -317 -376 -334 -396
-17 -19 -49 -57 -71 -84 -22 -27 -44 -53 -50 -59 -5 -6 -57 -67 -115 -136 -57
-69 -109 -130 -115 -136 -5 -6 -28 -33 -50 -59 -22 -27 -93 -112 -159 -189
-65 -78 -135 -161 -156 -186 -21 -25 -165 -196 -320 -380 -156 -184 -301 -357
-324 -384 -22 -27 -70 -84 -106 -126 -36 -42 -95 -112 -132 -156 -36 -43 -110
-131 -163 -194 -53 -63 -115 -137 -138 -165 -23 -27 -59 -70 -81 -95 -57 -68
-74 -87 -156 -185 -42 -49 -174 -207 -295 -350 -120 -143 -266 -316 -324 -385
-58 -69 -115 -136 -127 -150 -12 -14 -73 -86 -135 -160 -133 -160 -359 -428
-384 -456 -12 -13 -37 -44 -264 -314 -219 -260 -243 -288 -316 -374 -34 -39
-108 -127 -165 -196 -57 -69 -107 -127 -110 -130 -3 -3 -25 -30 -50 -60 -62
-75 -91 -110 -115 -135 -11 -12 -38 -44 -60 -71 -21 -27 -72 -87 -111 -134
-75 -88 -344 -407 -417 -495 -119 -141 -212 -251 -217 -255 -3 -3 -24 -27 -45
-55 -22 -27 -43 -52 -46 -55 -3 -3 -56 -66 -118 -140 -157 -188 -194 -230
-202 -230 -4 0 -66 71 -139 158 -72 86 -139 166 -148 177 -10 11 -100 119
-202 240 -102 121 -192 228 -200 239 -8 10 -20 23 -25 30 -6 6 -103 121 -216
256 -113 135 -275 328 -360 429 -207 247 -387 462 -662 791 -127 151 -241 286
-253 300 -13 14 -47 54 -76 90 -29 36 -55 67 -58 70 -3 3 -61 73 -130 155 -69
83 -163 195 -210 250 -47 55 -103 122 -125 149 -22 27 -45 54 -50 60 -6 6 -55
65 -110 131 -55 66 -104 125 -110 131 -5 6 -28 32 -50 59 -22 26 -103 123
-180 215 -77 92 -158 189 -180 215 -22 27 -44 53 -50 59 -5 6 -66 79 -135 161
-69 83 -127 152 -130 155 -3 3 -61 73 -130 155 -69 83 -127 152 -130 155 -5 4
-76 89 -122 145 -27 33 -307 366 -353 420 -24 28 -151 179 -283 337 -132 158
-259 310 -283 339 -24 28 -58 68 -75 88 -30 35 -333 397 -365 436 -9 11 -34
41 -55 66 -22 25 -59 70 -84 99 -25 30 -59 70 -76 90 -17 19 -111 132 -209
250 -99 118 -182 217 -185 220 -3 3 -37 43 -75 90 -38 47 -72 87 -75 90 -3 3
-39 46 -80 95 -41 50 -80 96 -87 103 -7 7 -29 34 -50 60 -21 26 -40 49 -43 52
-3 3 -39 46 -80 95 -41 50 -77 92 -80 95 -3 3 -61 73 -130 155 -69 83 -127
152 -130 155 -3 3 -43 50 -89 105 -45 55 -95 114 -109 131 -15 17 -45 52 -67
79 -22 27 -80 96 -129 154 -49 58 -191 227 -315 375 -124 148 -238 283 -252
300 l-27 31 -88 -76 c-49 -41 -174 -147 -279 -234 -104 -87 -206 -172 -225
-189 -20 -17 -55 -47 -78 -66 -23 -19 -42 -38 -42 -42 0 -5 9 -18 19 -30 11
-13 50 -59 88 -103 37 -45 87 -103 110 -130 75 -91 1005 -1199 1044 -1245 96
-114 545 -650 578 -689 20 -24 48 -58 62 -75 97 -114 482 -573 524 -625 11
-14 36 -43 56 -65 19 -23 116 -138 215 -256 98 -118 181 -217 184 -220 3 -3
25 -30 50 -60 25 -30 49 -60 55 -66 13 -14 70 -81 210 -249 147 -176 111 -133
386 -460 129 -154 268 -320 309 -370 41 -49 77 -92 80 -95 3 -3 41 -48 85
-100 44 -52 82 -97 85 -100 3 -3 22 -26 43 -52 21 -26 43 -53 50 -60 7 -7 68
-80 137 -163 69 -82 134 -161 146 -175 18 -20 388 -462 484 -577 14 -17 46
-54 71 -84 26 -30 93 -110 150 -179 57 -69 106 -127 109 -130 3 -3 64 -75 135
-160 72 -85 137 -164 146 -175 10 -11 70 -83 134 -160 65 -77 127 -151 139
-165 12 -14 55 -65 96 -115 41 -49 78 -92 81 -95 3 -3 41 -48 85 -101 43 -52
156 -187 251 -300 94 -112 246 -294 338 -404 92 -110 186 -222 210 -250 35
-41 182 -216 475 -565 122 -145 277 -331 310 -370 72 -87 282 -335 306 -362
27 -32 29 -41 12 -60 -7 -7 -30 -34 -51 -60 -21 -26 -44 -53 -50 -60 -7 -7
-61 -71 -121 -143 -59 -71 -117 -141 -129 -155 -12 -14 -69 -81 -126 -150 -58
-69 -211 -251 -340 -405 -129 -154 -316 -377 -416 -495 -99 -118 -188 -224
-197 -235 -9 -11 -164 -195 -344 -410 -179 -214 -345 -412 -369 -440 -38 -45
-136 -162 -628 -749 -78 -93 -207 -246 -286 -340 -79 -94 -162 -193 -185 -220
-22 -28 -68 -82 -101 -121 -33 -39 -78 -93 -100 -120 -48 -59 -158 -188 -165
-195 -9 -9 -303 -360 -335 -400 -16 -21 -131 -158 -255 -305 -324 -386 -457
-544 -500 -595 -21 -25 -100 -119 -176 -210 -76 -91 -145 -173 -154 -184 -8
-10 -20 -23 -25 -30 -6 -6 -57 -67 -115 -136 -58 -69 -112 -134 -122 -145 -9
-11 -81 -96 -159 -190 -78 -93 -145 -172 -149 -175 -3 -3 -13 -15 -21 -27 -9
-13 -36 -46 -61 -75 -26 -29 -63 -74 -85 -99 -21 -25 -57 -68 -79 -95 -23 -27
-105 -125 -184 -219 -78 -93 -152 -181 -163 -195 -12 -14 -44 -52 -71 -85 -28
-33 -55 -65 -61 -71 -5 -6 -26 -30 -45 -54 -19 -24 -40 -48 -45 -54 -6 -6 -79
-92 -161 -192 -83 -99 -162 -194 -176 -210 -35 -40 -388 -461 -473 -564 -38
-47 -82 -98 -96 -115 -23 -26 -194 -229 -557 -663 -48 -57 -100 -118 -115
-135 -54 -61 -62 -77 -46 -91 8 -7 115 -98 239 -201 124 -104 232 -195 240
-202 103 -88 212 -178 220 -181 4 -1 40 37 81 85 40 48 76 90 79 93 3 3 25 30
50 60 25 30 47 57 50 60 3 3 48 57 101 120 53 63 181 216 285 340 104 124 196
234 206 245 172 206 306 366 327 390 14 17 116 138 226 270 110 132 209 250
220 264 11 13 25 29 30 35 6 6 105 124 220 261 115 138 261 311 323 385 63 74
191 227 285 340 94 113 174 207 177 210 3 3 63 75 134 160 71 85 139 167 152
182 12 14 105 125 205 245 101 120 185 220 189 223 3 3 15 17 26 32 12 15 41
51 66 80 25 29 76 89 113 133 37 44 74 89 84 100 9 11 97 117 196 235 99 118
182 217 185 220 3 3 50 59 105 125 55 66 102 122 105 125 3 3 84 100 180 215
96 116 180 216 187 223 7 7 29 34 50 60 21 26 45 54 53 62 8 8 31 35 51 60 20
25 46 55 57 68 11 13 35 41 54 64 18 23 38 46 43 52 6 6 89 106 185 221 96
116 180 215 186 221 5 6 26 31 45 54 18 23 39 47 44 54 6 6 58 67 115 136 58
69 107 127 110 130 3 3 39 46 80 95 41 50 82 99 92 110 9 11 81 97 160 191 79
94 224 267 323 385 98 118 285 340 414 494 129 154 248 296 265 316 17 19 40
46 51 60 35 42 169 203 191 229 50 58 262 311 299 355 22 27 137 164 255 304
118 141 225 268 237 284 l21 27 74 -87 c41 -49 186 -221 322 -383 136 -162
267 -317 291 -345 23 -27 108 -129 189 -225 81 -96 167 -197 191 -225 23 -27
71 -84 105 -125 34 -41 82 -97 105 -125 24 -27 170 -201 325 -385 155 -184
299 -355 320 -380 21 -25 116 -137 210 -250 95 -113 182 -216 194 -230 53 -61
582 -689 720 -855 22 -27 55 -65 72 -85 17 -19 39 -46 50 -59 10 -13 24 -28
29 -35 6 -6 58 -67 115 -136 58 -69 107 -127 110 -130 3 -3 39 -45 80 -95 41
-49 77 -92 80 -95 6 -6 75 -88 207 -245 85 -102 418 -497 471 -560 10 -11 78
-92 152 -180 74 -88 137 -162 140 -165 3 -3 39 -45 80 -95 88 -106 112 -134
125 -149 6 -6 30 -36 55 -66 25 -30 47 -57 50 -60 8 -8 261 -307 435 -515 87
-104 175 -208 194 -231 20 -22 55 -62 77 -90 56 -67 381 -453 408 -484 11 -14
44 -52 71 -85 28 -33 55 -65 60 -71 6 -6 28 -32 50 -59 22 -26 105 -125 185
-220 80 -94 213 -251 295 -350 83 -98 155 -183 160 -189 6 -6 55 -65 110 -131
55 -66 102 -122 105 -125 6 -5 310 -367 340 -404 8 -10 20 -23 25 -30 16 -18
164 -192 251 -296 240 -286 299 -356 309 -366 5 -6 28 -33 50 -60 51 -62 399
-475 558 -662 67 -79 126 -150 130 -158 10 -17 22 -18 39 -1 7 7 83 71 168
142 174 146 473 396 508 427 24 19 24 20 5 41 -11 12 -26 30 -34 40 -8 10 -21
26 -30 35 -8 9 -161 190 -339 402 -178 212 -358 426 -400 475 -42 50 -136 162
-210 250 -74 88 -145 171 -157 185 -24 28 -511 606 -673 800 -58 69 -115 136
-127 150 -12 14 -87 104 -168 200 -81 96 -180 213 -220 260 -40 47 -172 204
-295 350 -122 146 -243 289 -269 319 -25 30 -57 67 -71 84 -38 46 -469 559
-494 587 -11 14 -43 52 -71 85 -27 33 -55 65 -61 71 -5 6 -26 30 -45 54 -18
23 -42 52 -53 63 -20 24 -67 80 -161 191 -33 39 -62 73 -65 76 -3 3 -37 43
-75 90 -38 47 -72 87 -75 90 -3 3 -64 75 -135 160 -72 85 -132 157 -135 160
-3 3 -102 120 -220 260 -118 140 -222 264 -231 275 -52 62 -330 391 -384 455
-35 41 -105 125 -157 186 -51 61 -112 133 -135 160 -22 27 -179 213 -348 414
-169 201 -317 376 -329 390 -11 14 -57 68 -101 120 -44 52 -82 97 -85 100 -3
3 -25 30 -50 60 -54 66 -82 99 -95 114 -5 6 -35 40 -65 76 -30 35 -65 76 -76
90 -12 14 -122 144 -245 290 -122 146 -236 281 -253 300 -17 20 -50 58 -72 85
-23 28 -79 95 -126 150 -46 55 -146 174 -222 265 -77 91 -158 188 -182 215
-23 28 -84 100 -135 160 -50 61 -103 124 -118 140 -14 17 -82 98 -151 180 -69
83 -127 152 -130 155 -5 5 -104 121 -132 155 -9 11 -95 114 -192 228 -97 115
-176 212 -176 216 0 7 123 158 209 256 14 17 82 98 151 180 68 83 127 152 130
155 3 3 41 48 85 100 44 52 82 97 85 100 3 3 72 86 155 185 82 99 152 182 155
185 3 3 59 68 124 145 110 132 142 169 214 255 86 101 608 720 687 815 97 115
274 326 303 360 89 105 990 1175 1002 1189 8 10 20 23 25 30 6 6 33 38 60 71
28 33 52 62 55 65 3 3 52 61 110 130 58 69 115 136 126 150 12 14 149 176 304
360 155 184 299 355 320 380 21 25 116 137 211 250 94 113 191 228 214 255
200 236 301 356 400 475 44 52 84 100 90 106 11 12 23 26 232 274 76 91 148
176 160 190 34 41 400 476 643 765 124 147 230 273 235 279 6 6 46 54 90 106
44 52 85 100 90 106 6 6 26 31 46 55 72 86 492 585 523 619 17 20 47 55 66 80
19 24 40 48 45 54 8 9 217 256 457 541 42 50 484 575 518 615 21 25 89 106
151 180 62 74 116 137 119 140 3 3 27 32 55 65 27 33 52 62 55 65 3 3 24 28
47 56 l42 51 -32 30 c-18 17 -102 88 -187 159 -84 71 -231 193 -324 272 -94
78 -173 142 -176 142 -3 0 -13 -10 -23 -23z"/>
<path d="M20159 21138 c-46 -56 -88 -106 -94 -112 -5 -6 -32 -38 -60 -71 -27
-33 -60 -71 -71 -85 -12 -14 -52 -61 -89 -105 -37 -44 -84 -100 -105 -125 -81
-96 -555 -658 -602 -715 -28 -33 -60 -71 -72 -85 -12 -14 -55 -65 -96 -115
-41 -49 -77 -92 -80 -95 -3 -3 -66 -77 -140 -165 -74 -88 -139 -165 -145 -171
-5 -7 -17 -20 -25 -30 -8 -11 -85 -102 -170 -203 -85 -101 -208 -247 -274
-325 -65 -78 -130 -154 -145 -171 -15 -16 -69 -82 -121 -145 -52 -63 -102
-122 -110 -130 -17 -19 -92 -107 -135 -161 -16 -20 -89 -106 -161 -190 -71
-85 -179 -212 -239 -284 -60 -71 -117 -139 -126 -150 -28 -33 -307 -364 -414
-491 -55 -65 -149 -177 -209 -249 -61 -71 -144 -170 -186 -220 -42 -49 -177
-209 -299 -355 -123 -146 -244 -289 -269 -318 -25 -29 -54 -65 -66 -80 -11
-15 -25 -31 -32 -37 -6 -5 -33 -37 -60 -70 -27 -33 -51 -62 -54 -65 -6 -6 -58
-68 -240 -285 -74 -88 -137 -162 -140 -165 -3 -3 -50 -59 -105 -125 -54 -66
-101 -122 -105 -125 -3 -3 -75 -88 -160 -190 -85 -102 -167 -198 -181 -215
-15 -16 -235 -277 -489 -580 -254 -302 -472 -561 -484 -575 -75 -89 -134 -158
-151 -179 -11 -13 -47 -56 -80 -95 -34 -39 -132 -156 -220 -261 -87 -104 -162
-192 -165 -195 -3 -3 -24 -27 -45 -55 -22 -27 -45 -54 -51 -60 -6 -5 -33 -37
-60 -70 -27 -33 -51 -62 -54 -65 -6 -5 -253 -301 -280 -334 -8 -10 -20 -24
-26 -30 -12 -12 -210 -249 -454 -541 -69 -83 -139 -166 -157 -185 l-32 -34 27
-37 c15 -20 48 -61 74 -90 25 -30 65 -76 88 -104 23 -27 52 -61 64 -75 11 -14
41 -50 66 -80 25 -30 55 -66 67 -80 11 -14 98 -117 193 -230 94 -113 192 -229
217 -258 25 -29 55 -65 67 -80 11 -15 25 -32 31 -38 6 -6 31 -35 56 -64 86
-103 114 -137 159 -190 25 -30 72 -86 105 -125 33 -38 81 -95 105 -125 25 -30
47 -57 51 -60 3 -3 43 -50 89 -105 210 -251 345 -410 350 -415 3 -3 39 -45 80
-95 73 -87 690 -820 775 -920 47 -55 168 -199 194 -230 9 -11 162 -193 340
-405 179 -212 372 -441 430 -510 58 -69 110 -130 116 -136 5 -6 19 -22 30 -35
74 -90 173 -208 191 -229 22 -25 189 -223 474 -561 85 -101 162 -193 172 -204
9 -11 94 -112 188 -225 95 -113 184 -219 199 -235 14 -17 71 -84 126 -150 55
-66 105 -126 112 -133 7 -7 29 -34 50 -59 21 -26 45 -54 53 -63 8 -8 33 -38
55 -65 22 -28 42 -52 46 -55 3 -3 52 -61 110 -130 58 -69 134 -159 168 -200
35 -41 107 -127 160 -190 53 -63 102 -121 109 -129 7 -7 79 -93 160 -190 80
-97 149 -178 152 -181 3 -3 66 -77 140 -165 74 -88 242 -288 375 -445 132
-157 312 -370 399 -475 88 -104 168 -200 180 -212 12 -12 35 -39 51 -59 17
-21 83 -101 149 -179 65 -77 135 -160 156 -185 104 -124 285 -338 304 -360 12
-14 55 -65 96 -115 41 -49 80 -95 85 -101 6 -6 48 -56 94 -112 72 -86 87 -99
100 -89 25 19 263 217 302 251 58 51 92 79 144 121 28 22 61 50 75 62 13 13
59 51 102 85 42 35 77 67 78 71 0 7 -388 476 -420 507 -3 3 -25 30 -50 60 -25
30 -47 57 -50 60 -3 3 -64 75 -135 160 -72 85 -132 157 -135 160 -3 3 -53 61
-110 130 -57 69 -114 136 -126 150 -12 14 -51 59 -86 101 -101 121 -149 178
-221 263 -38 45 -86 101 -106 126 -21 25 -175 207 -342 405 -437 519 -898
1067 -917 1090 -10 11 -63 74 -119 140 -124 147 -348 412 -548 650 -82 99
-190 227 -240 285 -49 58 -108 128 -130 155 -22 27 -47 56 -55 65 -8 8 -35 40
-60 70 -25 30 -83 100 -130 155 -47 56 -104 123 -126 150 -73 87 -335 398
-379 450 -48 56 -149 176 -211 251 -23 27 -214 254 -425 504 -211 250 -393
466 -404 479 -11 13 -47 56 -80 95 -119 141 -291 345 -370 441 -22 26 -45 53
-52 60 -6 6 -35 41 -64 76 -30 35 -65 78 -80 94 -15 17 -75 89 -135 160 -60
72 -177 211 -261 310 -130 155 -476 565 -593 705 -21 25 -105 124 -187 221
-81 97 -227 269 -323 384 -96 114 -179 213 -185 219 -52 59 -52 50 -4 108 24
29 46 55 49 58 3 3 64 75 135 160 71 85 134 160 140 166 5 6 53 62 105 124 52
62 137 163 189 224 149 176 151 179 189 225 51 60 854 1014 907 1076 23 28
109 129 190 225 185 220 325 386 348 414 24 28 -5 -7 742 880 357 423 656 779
666 790 9 12 106 127 215 256 201 239 410 487 444 527 11 12 79 93 151 180 73
87 139 165 148 174 9 8 30 33 46 54 17 21 50 61 74 89 45 53 54 63 136 161 28
33 60 71 71 85 12 14 77 90 144 170 67 80 132 156 143 170 12 14 78 93 147
175 69 83 127 152 130 155 3 3 102 120 220 260 254 301 225 267 345 410 54 63
107 126 119 140 12 14 77 92 146 174 69 82 179 213 245 291 66 79 176 210 245
291 69 82 197 234 286 339 88 104 223 265 300 356 76 91 208 247 292 347 83
100 152 185 152 191 0 5 -4 11 -9 13 -5 2 -158 129 -341 283 -183 154 -340
285 -350 292 -14 10 -28 -2 -101 -89z"/>
</g>
</svg>
